#!OML:ASF X:\für Bonn\!DataBase\2005_08_11_Bastian_Final\c3d\Bastian.ASF
:FULLY-SPECIFIED
:DEGREES
77
root -7.42272 16.6015 6.723 538.239 27.7258 -172.407
lowerback 21.5416 -0.188233 -3.44393
upperback 15.2636 2.16448 0.662273
thorax 4.65564 1.99277 2.38535
lowerneck -10.8274 -14.2507 -24.5825
upperneck -9.8616 -15.6916 36.4677
head 4.94416 -6.49123 14.9556
rclavicle 4.53229e-014 -2.94201e-014
rhumerus -28.1863 23.3081 -93.4504
rradius 60.8401
rwrist 10.4524
rhand -18.1971 5.51712
rfingers 7.12502
rthumb 8.08008 -24.3084
lclavicle 4.53229e-014 -2.94201e-014
lhumerus -21.1584 -46.9515 99.5328
lradius 67.3731
lwrist 10.898
lhand -14.5742 -10.2294
lfingers 7.12502
lthumb 11.5754 19.4309
rfemur 14.1087 -0.61695 26.2035
rtibia 40.2411
rfoot -19.3916 -1.20986
rtoes -19.3874
lfemur -31.4809 -6.76824 -6.33093
ltibia 39.7008
lfoot -6.56847 -9.0289
ltoes -38.7085
78
root -7.40277 16.6246 6.60603 538.436 27.7263 -172.414
lowerback 21.5538 -0.111007 -3.51726
upperback 15.172 2.22681 0.623424
thorax 4.54094 2.01344 2.36868
lowerneck -10.8163 -14.3675 -24.7675
upperneck -9.91571 -15.8484 36.7556
head 5.04398 -6.56024 15.0792
rclavicle -3.10104e-014 2.78299e-014
rhumerus -28.1669 23.3436 -93.5081
rradius 60.6139
rwrist 10.5281
rhand -18.1117 5.49252
rfingers 7.12502
rthumb 8.16251 -24.3298
lclavicle -3.10104e-014 2.78299e-014
lhumerus -21.1806 -46.8962 99.5694
lradius 67.2853
lwrist 10.8482
lhand -14.4218 -10.1509
lfingers 7.12502
lthumb 11.7223 19.5011
rfemur 13.9082 -0.679739 26.0419
rtibia 40.7354
rfoot -18.3809 -1.25219
rtoes -19.5357
lfemur -31.3922 -6.65998 -6.52018
ltibia 39.9165
lfoot -6.54431 -9.07648
ltoes -38.4316
79
root -7.38271 16.6483 6.49194 538.631 27.7487 -172.39
lowerback 21.6018 -0.0287112 -3.58465
upperback 15.0933 2.30108 0.598567
thorax 4.42234 2.04209 2.36097
lowerneck -10.8632 -14.4997 -24.9313
upperneck -9.9707 -16.0153 37.0372
head 5.15499 -6.62762 15.1903
rclavicle -1.23246e-014 -2.06736e-014
rhumerus -28.0776 23.3635 -93.5416
rradius 60.3298
rwrist 10.6026
rhand -18.067 5.55053
rfingers 7.12502
rthumb 8.20567 -24.2701
lclavicle -1.23246e-014 -2.06736e-014
lhumerus -21.1674 -46.8937 99.5742
lradius 67.207
lwrist 10.8605
lhand -14.3388 -10.0604
lfingers 7.12502
lthumb 11.8024 19.587
rfemur 13.6657 -0.73313 25.9197
rtibia 41.2911
rfoot -17.3299 -1.309
rtoes -19.4971
lfemur -31.277 -6.51818 -6.67833
ltibia 40.0948
lfoot -6.49676 -9.10851
ltoes -38.1191
80
root -7.3631 16.6723 6.38064 538.809 27.7528 -172.393
lowerback 21.6804 0.0455893 -3.67381
upperback 14.9972 2.35682 0.55659
thorax 4.27071 2.06049 2.34824
lowerneck -10.8838 -14.6098 -24.9989
upperneck -10.0341 -16.1589 37.2716
head 5.23528 -6.68843 15.2683
rclavicle -6.04305e-014 6.20208e-014
rhumerus -28.0077 23.3584 -93.6332
rradius 60.0192
rwrist 10.6718
rhand -18.0395 5.64401
rfingers 7.12502
rthumb 8.23219 -24.1756
lclavicle -6.04305e-014 6.20208e-014
lhumerus -21.2097 -46.8575 99.5624
lradius 67.1316
lwrist 10.8357
lhand -14.2618 -9.95826
lfingers 7.12502
lthumb 11.8766 19.6849
rfemur 13.3657 -0.848594 25.7502
rtibia 41.9218
rfoot -16.2424 -1.34293
rtoes -19.4476
lfemur -31.1403 -6.38584 -6.86013
ltibia 40.2274
lfoot -6.46859 -9.18828
ltoes -38.0341
81
root -7.34304 16.6972 6.27298 538.952 27.7871 -172.391
lowerback 21.8227 0.128787 -3.81696
upperback 14.915 2.41903 0.549497
thorax 4.10223 2.07921 2.40051
lowerneck -11.0043 -14.7344 -25.1125
upperneck -10.0289 -16.317 37.5043
head 5.36145 -6.74447 15.3472
rclavicle -9.54166e-015 1.66979e-014
rhumerus -27.9137 23.3868 -93.6731
rradius 59.6984
rwrist 10.7822
rhand -18.0461 5.74566
rfingers 7.12502
rthumb 8.22585 -24.0742
lclavicle -9.54166e-015 1.66979e-014
lhumerus -21.2206 -46.7871 99.5486
lradius 67.0527
lwrist 10.8596
lhand -14.2411 -9.89548
lfingers 7.12502
lthumb 11.8966 19.7465
rfemur 13.0404 -0.951035 25.5885
rtibia 42.6254
rfoot -15.099 -1.36696
rtoes -19.1944
lfemur -30.9414 -6.18088 -7.03941
ltibia 40.3184
lfoot -6.45843 -9.32572
ltoes -38.0807
82
root -7.32282 16.7218 6.16649 539.094 27.8234 -172.364
lowerback 21.9682 0.203477 -3.94755
upperback 14.8418 2.4743 0.542949
thorax 3.94317 2.09634 2.44767
lowerneck -11.1759 -14.85 -25.1251
upperneck -9.98965 -16.4647 37.6718
head 5.48144 -6.79118 15.3771
rclavicle -3.26007e-014 1.43125e-014
rhumerus -27.7958 23.3928 -93.7362
rradius 59.3732
rwrist 10.8915
rhand -18.0025 5.86416
rfingers 7.12502
rthumb 8.26793 -23.9541
lclavicle -3.26007e-014 1.43125e-014
lhumerus -21.2418 -46.6814 99.5078
lradius 66.9892
lwrist 10.8994
lhand -14.2133 -9.83498
lfingers 7.12502
lthumb 11.9234 19.8055
rfemur 12.6602 -1.10416 25.427
rtibia 43.4007
rfoot -13.8867 -1.36762
rtoes -18.9714
lfemur -30.7092 -6.00545 -7.18076
ltibia 40.3698
lfoot -6.44033 -9.48104
ltoes -38.0522
83
root -7.3022 16.7475 6.06158 539.196 27.8711 -172.39
lowerback 22.1089 0.280126 -4.1358
upperback 14.7842 2.52635 0.531884
thorax 3.80483 2.10901 2.52394
lowerneck -11.2818 -14.9488 -25.138
upperneck -10.0139 -16.5849 37.8447
head 5.5653 -6.83267 15.4189
rclavicle 1.35174e-014 -1.59028e-014
rhumerus -27.6536 23.3782 -93.7812
rradius 59.0393
rwrist 10.9909
rhand -17.9345 6.03354
rfingers 7.12502
rthumb 8.33354 -23.7821
lclavicle 1.35174e-014 -1.59028e-014
lhumerus -21.2971 -46.6141 99.4763
lradius 66.9724
lwrist 10.988
lhand -14.2791 -9.74446
lfingers 7.12502
lthumb 11.8599 19.8997
rfemur 12.241 -1.28262 25.2023
rtibia 44.2441
rfoot -12.647 -1.35984
rtoes -18.9123
lfemur -30.4372 -5.83454 -7.36552
ltibia 40.3881
lfoot -6.40049 -9.62764
ltoes -37.9271
84
root -7.28127 16.773 5.95725 539.295 27.9251 -172.388
lowerback 22.2586 0.343752 -4.29003
upperback 14.7343 2.5689 0.513177
thorax 3.6721 2.12091 2.57446
lowerneck -11.382 -15.027 -25.1222
upperneck -10.0464 -16.674 38.0391
head 5.63798 -6.85902 15.474
rclavicle -1.03368e-014 3.65764e-014
rhumerus -27.5327 23.3521 -93.8475
rradius 58.7559
rwrist 11.0699
rhand -17.8643 6.24563
rfingers 7.12502
rthumb 8.40134 -23.5673
lclavicle -1.03368e-014 3.65764e-014
lhumerus -21.3535 -46.5358 99.3984
lradius 66.9697
lwrist 11.1496
lhand -14.3554 -9.69566
lfingers 7.12502
lthumb 11.7864 19.9527
rfemur 11.7794 -1.4982 24.9855
rtibia 45.157
rfoot -11.3343 -1.33868
rtoes -18.6425
lfemur -30.1313 -5.66151 -7.51743
ltibia 40.381
lfoot -6.37941 -9.774
ltoes -37.7166
85
root -7.25998 16.7983 5.85362 539.345 28 -172.412
lowerback 22.4209 0.410508 -4.48702
upperback 14.7045 2.61337 0.504078
thorax 3.55592 2.13217 2.65954
lowerneck -11.4952 -15.0968 -25.0779
upperneck -10.0567 -16.7559 38.1676
head 5.70136 -6.88244 15.4948
rclavicle 2.38542e-014 -7.95139e-015
rhumerus -27.4082 23.2756 -93.8961
rradius 58.4877
rwrist 11.1818
rhand -17.784 6.51648
rfingers 7.12502
rthumb 8.47878 -23.2933
lclavicle 2.38542e-014 -7.95139e-015
lhumerus -21.4211 -46.4063 99.3283
lradius 67.0168
lwrist 11.3021
lhand -14.4211 -9.65185
lfingers 7.12502
lthumb 11.7231 20.0001
rfemur 11.3024 -1.72835 24.7175
rtibia 46.1469
rfoot -9.97964 -1.28177
rtoes -18.3952
lfemur -29.763 -5.48015 -7.69893
ltibia 40.3487
lfoot -6.35702 -9.90105
ltoes -37.3571
86
root -7.23943 16.822 5.75175 539.369 28.0736 -172.406
lowerback 22.6143 0.463023 -4.64782
upperback 14.6827 2.64728 0.507833
thorax 3.4343 2.14193 2.73913
lowerneck -11.5203 -15.1337 -25.0361
upperneck -10.1106 -16.7963 38.298
head 5.72501 -6.89687 15.5323
rclavicle -2.62396e-014 -5.56597e-015
rhumerus -27.297 23.2405 -93.9195
rradius 58.2511
rwrist 11.2117
rhand -17.6793 6.81092
rfingers 7.12502
rthumb 8.57979 -22.9948
lclavicle -2.62396e-014 -5.56597e-015
lhumerus -21.521 -46.2831 99.2871
lradius 67.0496
lwrist 11.4915
lhand -14.5279 -9.64322
lfingers 7.12502
lthumb 11.6201 20.0146
rfemur 10.8159 -2.01928 24.4542
rtibia 47.2143
rfoot -8.55988 -1.23679
rtoes -18.1863
lfemur -29.3592 -5.32073 -7.84946
ltibia 40.3061
lfoot -6.30909 -10.0152
ltoes -36.9051
87
root -7.21928 16.8466 5.65075 539.417 28.153 -172.399
lowerback 22.7603 0.5016 -4.77297
upperback 14.6711 2.67136 0.495895
thorax 3.34907 2.14915 2.7859
lowerneck -11.5388 -15.1653 -24.9915
upperneck -10.1736 -16.8279 38.4456
head 5.74551 -6.90761 15.5801
rclavicle 4.69132e-014 -2.46493e-014
rhumerus -27.112 23.1381 -93.9624
rradius 58.0048
rwrist 11.2294
rhand -17.5664 7.08723
rfingers 7.12502
rthumb 8.6888 -22.7139
lclavicle 4.69132e-014 -2.46493e-014
lhumerus -21.6342 -46.2171 99.2116
lradius 67.1464
lwrist 11.7156
lhand -14.7043 -9.56157
lfingers 7.12502
lthumb 11.45 20.1058
rfemur 10.2424 -2.31642 24.1807
rtibia 48.3597
rfoot -7.15123 -1.14631
rtoes -18.0362
lfemur -28.9663 -5.1687 -7.99187
ltibia 40.251
lfoot -6.30028 -10.1038
ltoes -36.4436
88
root -7.19965 16.8703 5.55022 539.417 28.2633 -172.419
lowerback 22.9034 0.535651 -4.90866
upperback 14.6915 2.69746 0.462264
thorax 3.30313 2.15998 2.81662
lowerneck -11.5356 -15.1759 -24.8815
upperneck -10.2877 -16.8198 38.5883
head 5.72795 -6.90241 15.6237
rclavicle -5.725e-014 6.12257e-014
rhumerus -26.863 23.0404 -94.0151
rradius 57.7727
rwrist 11.1913
rhand -17.4359 7.35288
rfingers 7.12502
rthumb 8.81471 -22.443
lclavicle -5.725e-014 6.12257e-014
lhumerus -21.7359 -46.1432 99.0949
lradius 67.2916
lwrist 11.8798
lhand -14.9326 -9.43821
lfingers 7.12502
lthumb 11.2297 20.2412
rfemur 9.66913 -2.60955 23.8637
rtibia 49.5674
rfoot -5.83699 -1.01542
rtoes -18.2641
lfemur -28.5338 -4.98856 -8.17025
ltibia 40.1989
lfoot -6.27757 -10.1504
ltoes -35.8787
